<mxfile host="app.diagrams.net" agent="Mozilla/5.0 (Windows NT 10.0; Win64; x64) AppleWebKit/537.36 (KHTML, like Gecko) Chrome/133.0.0.0 Safari/537.36" version="26.0.16">
  <diagram id="R2lEEEUBdFMjLlhIrx00" name="Page-1">
    <mxGraphModel dx="1434" dy="738" grid="1" gridSize="10" guides="1" tooltips="1" connect="1" arrows="1" fold="1" page="1" pageScale="1" pageWidth="850" pageHeight="1100" math="0" shadow="0" extFonts="Permanent Marker^https://fonts.googleapis.com/css?family=Permanent+Marker">
      <root>
        <mxCell id="0" />
        <mxCell id="1" parent="0" />
        <mxCell id="-HY_8tp-kXO4mcghuJu2-8" style="edgeStyle=orthogonalEdgeStyle;rounded=0;orthogonalLoop=1;jettySize=auto;html=1;exitX=0;exitY=1;exitDx=0;exitDy=0;entryX=1;entryY=0;entryDx=0;entryDy=0;" edge="1" parent="1" source="-HY_8tp-kXO4mcghuJu2-1" target="-HY_8tp-kXO4mcghuJu2-7">
          <mxGeometry relative="1" as="geometry">
            <Array as="points">
              <mxPoint x="340" y="240" />
              <mxPoint x="240" y="240" />
              <mxPoint x="240" y="300" />
            </Array>
          </mxGeometry>
        </mxCell>
        <mxCell id="-HY_8tp-kXO4mcghuJu2-1" value="Items" style="rounded=0;whiteSpace=wrap;html=1;" vertex="1" parent="1">
          <mxGeometry x="340" y="140" width="120" height="60" as="geometry" />
        </mxCell>
        <mxCell id="-HY_8tp-kXO4mcghuJu2-2" value="Sells" style="rhombus;whiteSpace=wrap;html=1;" vertex="1" parent="1">
          <mxGeometry x="570" y="280" width="120" height="80" as="geometry" />
        </mxCell>
        <mxCell id="-HY_8tp-kXO4mcghuJu2-3" value="Bids" style="rhombus;whiteSpace=wrap;html=1;" vertex="1" parent="1">
          <mxGeometry x="340" y="280" width="120" height="80" as="geometry" />
        </mxCell>
        <mxCell id="-HY_8tp-kXO4mcghuJu2-5" value="users" style="rounded=0;whiteSpace=wrap;html=1;" vertex="1" parent="1">
          <mxGeometry x="480" y="450" width="120" height="60" as="geometry" />
        </mxCell>
        <mxCell id="-HY_8tp-kXO4mcghuJu2-6" value="Categories" style="rounded=0;whiteSpace=wrap;html=1;" vertex="1" parent="1">
          <mxGeometry x="125" y="460" width="120" height="60" as="geometry" />
        </mxCell>
        <mxCell id="-HY_8tp-kXO4mcghuJu2-9" style="edgeStyle=orthogonalEdgeStyle;rounded=0;orthogonalLoop=1;jettySize=auto;html=1;exitX=0.5;exitY=1;exitDx=0;exitDy=0;entryX=0.5;entryY=0;entryDx=0;entryDy=0;" edge="1" parent="1" source="-HY_8tp-kXO4mcghuJu2-7" target="-HY_8tp-kXO4mcghuJu2-6">
          <mxGeometry relative="1" as="geometry">
            <mxPoint x="180" y="430" as="targetPoint" />
          </mxGeometry>
        </mxCell>
        <mxCell id="-HY_8tp-kXO4mcghuJu2-7" value="Has" style="rhombus;whiteSpace=wrap;html=1;" vertex="1" parent="1">
          <mxGeometry x="130" y="280" width="110" height="80" as="geometry" />
        </mxCell>
        <mxCell id="-HY_8tp-kXO4mcghuJu2-10" value="CategoryID" style="ellipse;whiteSpace=wrap;html=1;" vertex="1" parent="1">
          <mxGeometry x="80" y="590" width="90" height="60" as="geometry" />
        </mxCell>
        <mxCell id="-HY_8tp-kXO4mcghuJu2-11" value="Category" style="ellipse;whiteSpace=wrap;html=1;" vertex="1" parent="1">
          <mxGeometry x="210" y="590" width="100" height="60" as="geometry" />
        </mxCell>
        <mxCell id="-HY_8tp-kXO4mcghuJu2-15" value="" style="endArrow=none;html=1;rounded=0;curved=1;exitX=0.5;exitY=0;exitDx=0;exitDy=0;entryX=0.875;entryY=1.017;entryDx=0;entryDy=0;entryPerimeter=0;" edge="1" parent="1" source="-HY_8tp-kXO4mcghuJu2-11" target="-HY_8tp-kXO4mcghuJu2-6">
          <mxGeometry width="50" height="50" relative="1" as="geometry">
            <mxPoint x="240" y="600" as="sourcePoint" />
            <mxPoint x="240" y="530" as="targetPoint" />
          </mxGeometry>
        </mxCell>
        <mxCell id="-HY_8tp-kXO4mcghuJu2-16" value="" style="endArrow=none;html=1;rounded=0;curved=1;entryX=0.25;entryY=1;entryDx=0;entryDy=0;exitX=0.5;exitY=0;exitDx=0;exitDy=0;" edge="1" parent="1" source="-HY_8tp-kXO4mcghuJu2-10" target="-HY_8tp-kXO4mcghuJu2-6">
          <mxGeometry width="50" height="50" relative="1" as="geometry">
            <mxPoint x="120" y="580" as="sourcePoint" />
            <mxPoint x="170" y="530" as="targetPoint" />
          </mxGeometry>
        </mxCell>
      </root>
    </mxGraphModel>
  </diagram>
</mxfile>
